<svg width="80" height="57" viewBox="0 0 80 57" fill="none" xmlns="http://www.w3.org/2000/svg">
<path d="M0 28.5001C0 12.7601 12.7598 0.000244141 28.4999 0.000244141L56 0.000244141L56 57H28.4999C12.7598 57 0 44.2402 0 28.5001Z" fill="#FFD59A"/>
<path d="M55.5 56.9998C41.969 56.9998 31 46.0307 31 32.4998L31 -3.05176e-05L80 -3.23958e-05L80 32.4997C80 46.0307 69.031 56.9998 55.5 56.9998Z" fill="#FFD59A"/>
<path fill-rule="evenodd" clip-rule="evenodd" d="M31 32.4998C31 46.0308 41.969 56.9998 55.5 56.9998C55.6671 56.9998 55.8337 56.9981 56 56.9948L56 0.000244141L31 0.000244141L31 32.4998Z" fill="#D68F2C"/>
</svg>
